G04 #@! TF.GenerationSoftware,KiCad,Pcbnew,5.1.4*
G04 #@! TF.CreationDate,2019-08-23T15:49:18-05:00*
G04 #@! TF.ProjectId,first_keyboard,66697273-745f-46b6-9579-626f6172642e,rev?*
G04 #@! TF.SameCoordinates,Original*
G04 #@! TF.FileFunction,Soldermask,Bot*
G04 #@! TF.FilePolarity,Negative*
%FSLAX46Y46*%
G04 Gerber Fmt 4.6, Leading zero omitted, Abs format (unit mm)*
G04 Created by KiCad (PCBNEW 5.1.4) date 2019-08-23 15:49:18*
%MOMM*%
%LPD*%
G04 APERTURE LIST*
%ADD10C,0.100000*%
G04 APERTURE END LIST*
D10*
G36*
X153004659Y-114595525D02*
G01*
X153089675Y-114621314D01*
X153168024Y-114663193D01*
X153236699Y-114719552D01*
X153293057Y-114788225D01*
X153334936Y-114866574D01*
X153360725Y-114951590D01*
X153367250Y-115017842D01*
X153367250Y-115662158D01*
X153360725Y-115728410D01*
X153334936Y-115813426D01*
X153293057Y-115891775D01*
X153236699Y-115960449D01*
X153168025Y-116016807D01*
X153089676Y-116058686D01*
X153004660Y-116084475D01*
X152916250Y-116093182D01*
X152827841Y-116084475D01*
X152742825Y-116058686D01*
X152664476Y-116016807D01*
X152595802Y-115960449D01*
X152539445Y-115891776D01*
X152497563Y-115813423D01*
X152471775Y-115728410D01*
X152465250Y-115662158D01*
X152465250Y-115017843D01*
X152471775Y-114951591D01*
X152497564Y-114866575D01*
X152539443Y-114788226D01*
X152595802Y-114719551D01*
X152664475Y-114663193D01*
X152742824Y-114621314D01*
X152827840Y-114595525D01*
X152916250Y-114586818D01*
X153004659Y-114595525D01*
X153004659Y-114595525D01*
G37*
G36*
X161984659Y-114595525D02*
G01*
X162069675Y-114621314D01*
X162148024Y-114663193D01*
X162216699Y-114719552D01*
X162273057Y-114788225D01*
X162314936Y-114866574D01*
X162340725Y-114951590D01*
X162347250Y-115017842D01*
X162347250Y-115662158D01*
X162340725Y-115728410D01*
X162314936Y-115813426D01*
X162273057Y-115891775D01*
X162216699Y-115960449D01*
X162148025Y-116016807D01*
X162069676Y-116058686D01*
X161984660Y-116084475D01*
X161896250Y-116093182D01*
X161807841Y-116084475D01*
X161722825Y-116058686D01*
X161644476Y-116016807D01*
X161575802Y-115960449D01*
X161519445Y-115891776D01*
X161477563Y-115813423D01*
X161451775Y-115728410D01*
X161445250Y-115662158D01*
X161445250Y-115017843D01*
X161451775Y-114951591D01*
X161477564Y-114866575D01*
X161519443Y-114788226D01*
X161575802Y-114719551D01*
X161644475Y-114663193D01*
X161722824Y-114621314D01*
X161807840Y-114595525D01*
X161896250Y-114586818D01*
X161984659Y-114595525D01*
X161984659Y-114595525D01*
G37*
G36*
X94938500Y-113819750D02*
G01*
X93236500Y-113819750D01*
X93236500Y-112117750D01*
X94938500Y-112117750D01*
X94938500Y-113819750D01*
X94938500Y-113819750D01*
G37*
G36*
X102135728Y-112150453D02*
G01*
X102290600Y-112214603D01*
X102429981Y-112307735D01*
X102548515Y-112426269D01*
X102641647Y-112565650D01*
X102705797Y-112720522D01*
X102738500Y-112884934D01*
X102738500Y-113052566D01*
X102705797Y-113216978D01*
X102641647Y-113371850D01*
X102548515Y-113511231D01*
X102429981Y-113629765D01*
X102290600Y-113722897D01*
X102135728Y-113787047D01*
X101971316Y-113819750D01*
X101803684Y-113819750D01*
X101639272Y-113787047D01*
X101484400Y-113722897D01*
X101345019Y-113629765D01*
X101226485Y-113511231D01*
X101133353Y-113371850D01*
X101069203Y-113216978D01*
X101036500Y-113052566D01*
X101036500Y-112884934D01*
X101069203Y-112720522D01*
X101133353Y-112565650D01*
X101226485Y-112426269D01*
X101345019Y-112307735D01*
X101484400Y-112214603D01*
X101639272Y-112150453D01*
X101803684Y-112117750D01*
X101971316Y-112117750D01*
X102135728Y-112150453D01*
X102135728Y-112150453D01*
G37*
G36*
X114257250Y-113788500D02*
G01*
X112555250Y-113788500D01*
X112555250Y-112086500D01*
X114257250Y-112086500D01*
X114257250Y-113788500D01*
X114257250Y-113788500D01*
G37*
G36*
X121454478Y-112119203D02*
G01*
X121609350Y-112183353D01*
X121748731Y-112276485D01*
X121867265Y-112395019D01*
X121960397Y-112534400D01*
X122024547Y-112689272D01*
X122057250Y-112853684D01*
X122057250Y-113021316D01*
X122024547Y-113185728D01*
X121960397Y-113340600D01*
X121867265Y-113479981D01*
X121748731Y-113598515D01*
X121609350Y-113691647D01*
X121454478Y-113755797D01*
X121290066Y-113788500D01*
X121122434Y-113788500D01*
X120958022Y-113755797D01*
X120803150Y-113691647D01*
X120663769Y-113598515D01*
X120545235Y-113479981D01*
X120452103Y-113340600D01*
X120387953Y-113185728D01*
X120355250Y-113021316D01*
X120355250Y-112853684D01*
X120387953Y-112689272D01*
X120452103Y-112534400D01*
X120545235Y-112395019D01*
X120663769Y-112276485D01*
X120803150Y-112183353D01*
X120958022Y-112119203D01*
X121122434Y-112086500D01*
X121290066Y-112086500D01*
X121454478Y-112119203D01*
X121454478Y-112119203D01*
G37*
G36*
X161229960Y-107769440D02*
G01*
X161300835Y-107790940D01*
X161366154Y-107825854D01*
X161423409Y-107872841D01*
X161470396Y-107930096D01*
X161505310Y-107995415D01*
X161526810Y-108066290D01*
X161534069Y-108140000D01*
X161526810Y-108213710D01*
X161505310Y-108284585D01*
X161470396Y-108349904D01*
X161423409Y-108407158D01*
X161408547Y-108419355D01*
X161391220Y-108436682D01*
X161377606Y-108457056D01*
X161368229Y-108479695D01*
X161363448Y-108503728D01*
X161363448Y-108528232D01*
X161368228Y-108552265D01*
X161377605Y-108574904D01*
X161391219Y-108595279D01*
X161408546Y-108612606D01*
X161428920Y-108626220D01*
X161451559Y-108635597D01*
X161475592Y-108640378D01*
X161500096Y-108640378D01*
X161536249Y-108636818D01*
X161536250Y-108636818D01*
X161544957Y-108637676D01*
X161624659Y-108645525D01*
X161709675Y-108671314D01*
X161788024Y-108713193D01*
X161856699Y-108769552D01*
X161913057Y-108838225D01*
X161954936Y-108916574D01*
X161980725Y-109001590D01*
X161987250Y-109067842D01*
X161987250Y-109712158D01*
X161980725Y-109778410D01*
X161954936Y-109863426D01*
X161913057Y-109941775D01*
X161856699Y-110010449D01*
X161788025Y-110066807D01*
X161709676Y-110108686D01*
X161624660Y-110134475D01*
X161536250Y-110143182D01*
X161447841Y-110134475D01*
X161362825Y-110108686D01*
X161284476Y-110066807D01*
X161215802Y-110010449D01*
X161159445Y-109941776D01*
X161117563Y-109863423D01*
X161091775Y-109778410D01*
X161085250Y-109712158D01*
X161085250Y-109067843D01*
X161091775Y-109001591D01*
X161117564Y-108916575D01*
X161159443Y-108838226D01*
X161215802Y-108769551D01*
X161254704Y-108737625D01*
X161272031Y-108720298D01*
X161285645Y-108699923D01*
X161295022Y-108677285D01*
X161299803Y-108653251D01*
X161299803Y-108628747D01*
X161295023Y-108604714D01*
X161285645Y-108582075D01*
X161272032Y-108561701D01*
X161254705Y-108544374D01*
X161234330Y-108530760D01*
X161211692Y-108521383D01*
X161187658Y-108516602D01*
X161175406Y-108516000D01*
X160837778Y-108516000D01*
X160782540Y-108510560D01*
X160711665Y-108489060D01*
X160646346Y-108454146D01*
X160589091Y-108407159D01*
X160542104Y-108349904D01*
X160507190Y-108284585D01*
X160485690Y-108213710D01*
X160478431Y-108140000D01*
X160485690Y-108066290D01*
X160507190Y-107995415D01*
X160542104Y-107930096D01*
X160589091Y-107872841D01*
X160646346Y-107825854D01*
X160711665Y-107790940D01*
X160782540Y-107769440D01*
X160837778Y-107764000D01*
X161174722Y-107764000D01*
X161229960Y-107769440D01*
X161229960Y-107769440D01*
G37*
G36*
X153364659Y-108645525D02*
G01*
X153449675Y-108671314D01*
X153528024Y-108713193D01*
X153596699Y-108769552D01*
X153653057Y-108838225D01*
X153694936Y-108916574D01*
X153720725Y-109001590D01*
X153727250Y-109067842D01*
X153727250Y-109712158D01*
X153720725Y-109778410D01*
X153694936Y-109863426D01*
X153653057Y-109941775D01*
X153596699Y-110010449D01*
X153528025Y-110066807D01*
X153449676Y-110108686D01*
X153364660Y-110134475D01*
X153276250Y-110143182D01*
X153187841Y-110134475D01*
X153102825Y-110108686D01*
X153024476Y-110066807D01*
X152955802Y-110010449D01*
X152899445Y-109941776D01*
X152857563Y-109863423D01*
X152831775Y-109778410D01*
X152825250Y-109712158D01*
X152825250Y-109067843D01*
X152831775Y-109001591D01*
X152857564Y-108916575D01*
X152899443Y-108838226D01*
X152955802Y-108769551D01*
X153024475Y-108713193D01*
X153102824Y-108671314D01*
X153187840Y-108645525D01*
X153276250Y-108636818D01*
X153364659Y-108645525D01*
X153364659Y-108645525D01*
G37*
G36*
X153915922Y-107778449D02*
G01*
X153915924Y-107778450D01*
X153915925Y-107778450D01*
X153984353Y-107806793D01*
X154045936Y-107847942D01*
X154098308Y-107900314D01*
X154139457Y-107961897D01*
X154153340Y-107995415D01*
X154167801Y-108030328D01*
X154182250Y-108102966D01*
X154182250Y-108177034D01*
X154174955Y-108213709D01*
X154167800Y-108249675D01*
X154139457Y-108318103D01*
X154098308Y-108379686D01*
X154045936Y-108432058D01*
X153984353Y-108473207D01*
X153915925Y-108501550D01*
X153915924Y-108501550D01*
X153915922Y-108501551D01*
X153843284Y-108516000D01*
X153769216Y-108516000D01*
X153696578Y-108501551D01*
X153696576Y-108501550D01*
X153696575Y-108501550D01*
X153628147Y-108473207D01*
X153566564Y-108432058D01*
X153514192Y-108379686D01*
X153473043Y-108318103D01*
X153444700Y-108249675D01*
X153437546Y-108213709D01*
X153430250Y-108177034D01*
X153430250Y-108102966D01*
X153444699Y-108030328D01*
X153459160Y-107995415D01*
X153473043Y-107961897D01*
X153514192Y-107900314D01*
X153566564Y-107847942D01*
X153628147Y-107806793D01*
X153696575Y-107778450D01*
X153696576Y-107778450D01*
X153696578Y-107778449D01*
X153769216Y-107764000D01*
X153843284Y-107764000D01*
X153915922Y-107778449D01*
X153915922Y-107778449D01*
G37*
G36*
X95024575Y-102982536D02*
G01*
X95275086Y-103036583D01*
X95408357Y-103094324D01*
X95510239Y-103138465D01*
X95592531Y-103195394D01*
X95720996Y-103284264D01*
X95720998Y-103284266D01*
X95899262Y-103468380D01*
X96038180Y-103683733D01*
X96132419Y-103922054D01*
X96163194Y-104090983D01*
X96178351Y-104174178D01*
X96174213Y-104430419D01*
X96120166Y-104680930D01*
X96043813Y-104857161D01*
X95170846Y-106428799D01*
X95061579Y-106586747D01*
X95061577Y-106586749D01*
X94877463Y-106765013D01*
X94692953Y-106884035D01*
X94662108Y-106903932D01*
X94639546Y-106912853D01*
X94423789Y-106998170D01*
X94244840Y-107030770D01*
X94171665Y-107044102D01*
X93915425Y-107039964D01*
X93664914Y-106985917D01*
X93531643Y-106928176D01*
X93429761Y-106884035D01*
X93318312Y-106806936D01*
X93219004Y-106738236D01*
X93188745Y-106706984D01*
X93040738Y-106554120D01*
X92901820Y-106338767D01*
X92807581Y-106100446D01*
X92774981Y-105921497D01*
X92761649Y-105848322D01*
X92765787Y-105592082D01*
X92819834Y-105341571D01*
X92896187Y-105165340D01*
X93769154Y-103593701D01*
X93878421Y-103435753D01*
X93878423Y-103435751D01*
X94062537Y-103257487D01*
X94277889Y-103118568D01*
X94516210Y-103024330D01*
X94695159Y-102991730D01*
X94768334Y-102978398D01*
X95024575Y-102982536D01*
X95024575Y-102982536D01*
G37*
G36*
X114155825Y-102951286D02*
G01*
X114406336Y-103005333D01*
X114508688Y-103049678D01*
X114641489Y-103107215D01*
X114752938Y-103184314D01*
X114852246Y-103253014D01*
X114852248Y-103253016D01*
X115030512Y-103437130D01*
X115169430Y-103652483D01*
X115263669Y-103890804D01*
X115296269Y-104069753D01*
X115309601Y-104142928D01*
X115305463Y-104399169D01*
X115251416Y-104649680D01*
X115175063Y-104825911D01*
X114302096Y-106397549D01*
X114192829Y-106555497D01*
X114192827Y-106555499D01*
X114008713Y-106733763D01*
X113824203Y-106852785D01*
X113793358Y-106872682D01*
X113770796Y-106881603D01*
X113555039Y-106966920D01*
X113383513Y-106998168D01*
X113302915Y-107012852D01*
X113046675Y-107008714D01*
X112796164Y-106954667D01*
X112662893Y-106896926D01*
X112561011Y-106852785D01*
X112434133Y-106765012D01*
X112350254Y-106706986D01*
X112350252Y-106706984D01*
X112171988Y-106522870D01*
X112033070Y-106307517D01*
X111938831Y-106069196D01*
X111898593Y-105848323D01*
X111892899Y-105817072D01*
X111897037Y-105560832D01*
X111951084Y-105310321D01*
X112027437Y-105134090D01*
X112900404Y-103562451D01*
X113009671Y-103404503D01*
X113133856Y-103284264D01*
X113193787Y-103226237D01*
X113409139Y-103087318D01*
X113647460Y-102993080D01*
X113826409Y-102960480D01*
X113899584Y-102947148D01*
X114155825Y-102951286D01*
X114155825Y-102951286D01*
G37*
G36*
X100756379Y-101940063D02*
G01*
X100995991Y-102030963D01*
X101163303Y-102135613D01*
X101213265Y-102166863D01*
X101399852Y-102342538D01*
X101511209Y-102498800D01*
X101548580Y-102551240D01*
X101653735Y-102784947D01*
X101653736Y-102784951D01*
X101711276Y-103034678D01*
X101717058Y-103226644D01*
X101704933Y-103404501D01*
X101668916Y-103932821D01*
X101637135Y-104122233D01*
X101546235Y-104361845D01*
X101502817Y-104431260D01*
X101410335Y-104579119D01*
X101234660Y-104765706D01*
X101078398Y-104877063D01*
X101025958Y-104914434D01*
X100792251Y-105019589D01*
X100792247Y-105019590D01*
X100542521Y-105077130D01*
X100286366Y-105084844D01*
X100286362Y-105084844D01*
X100033621Y-105042437D01*
X99794009Y-104951537D01*
X99576735Y-104815637D01*
X99523703Y-104765706D01*
X99390148Y-104639962D01*
X99278791Y-104483700D01*
X99241420Y-104431260D01*
X99136265Y-104197553D01*
X99123679Y-104142928D01*
X99078724Y-103947822D01*
X99072942Y-103755858D01*
X99121084Y-103049678D01*
X99133044Y-102978398D01*
X99152865Y-102860267D01*
X99243765Y-102620655D01*
X99379665Y-102403381D01*
X99555340Y-102216794D01*
X99711602Y-102105437D01*
X99764042Y-102068066D01*
X99997749Y-101962911D01*
X99997753Y-101962910D01*
X100247479Y-101905370D01*
X100503634Y-101897656D01*
X100503638Y-101897656D01*
X100756379Y-101940063D01*
X100756379Y-101940063D01*
G37*
G36*
X119887629Y-101908813D02*
G01*
X120127241Y-101999713D01*
X120344515Y-102135613D01*
X120531102Y-102311288D01*
X120596730Y-102403381D01*
X120679830Y-102519990D01*
X120784985Y-102753697D01*
X120784986Y-102753701D01*
X120842526Y-103003428D01*
X120848308Y-103195394D01*
X120842249Y-103284264D01*
X120800166Y-103901571D01*
X120768385Y-104090983D01*
X120677485Y-104330595D01*
X120634067Y-104400010D01*
X120541585Y-104547869D01*
X120365910Y-104734456D01*
X120209648Y-104845813D01*
X120157208Y-104883184D01*
X119923501Y-104988339D01*
X119923497Y-104988340D01*
X119673771Y-105045880D01*
X119417616Y-105053594D01*
X119417612Y-105053594D01*
X119164871Y-105011187D01*
X118925259Y-104920287D01*
X118707985Y-104784387D01*
X118654953Y-104734456D01*
X118521398Y-104608712D01*
X118410041Y-104452450D01*
X118372670Y-104400010D01*
X118267515Y-104166303D01*
X118250160Y-104090983D01*
X118209974Y-103916572D01*
X118204192Y-103724608D01*
X118252334Y-103018428D01*
X118278872Y-102860267D01*
X118284115Y-102829017D01*
X118375015Y-102589405D01*
X118510915Y-102372131D01*
X118686590Y-102185544D01*
X118851441Y-102068066D01*
X118895292Y-102036816D01*
X119128999Y-101931661D01*
X119129003Y-101931660D01*
X119378729Y-101874120D01*
X119634884Y-101866406D01*
X119634888Y-101866406D01*
X119887629Y-101908813D01*
X119887629Y-101908813D01*
G37*
G36*
X95032250Y-94688500D02*
G01*
X93330250Y-94688500D01*
X93330250Y-92986500D01*
X95032250Y-92986500D01*
X95032250Y-94688500D01*
X95032250Y-94688500D01*
G37*
G36*
X102229478Y-93019203D02*
G01*
X102384350Y-93083353D01*
X102523731Y-93176485D01*
X102642265Y-93295019D01*
X102735397Y-93434400D01*
X102799547Y-93589272D01*
X102832250Y-93753684D01*
X102832250Y-93921316D01*
X102799547Y-94085728D01*
X102735397Y-94240600D01*
X102642265Y-94379981D01*
X102523731Y-94498515D01*
X102384350Y-94591647D01*
X102229478Y-94655797D01*
X102065066Y-94688500D01*
X101897434Y-94688500D01*
X101733022Y-94655797D01*
X101578150Y-94591647D01*
X101438769Y-94498515D01*
X101320235Y-94379981D01*
X101227103Y-94240600D01*
X101162953Y-94085728D01*
X101130250Y-93921316D01*
X101130250Y-93753684D01*
X101162953Y-93589272D01*
X101227103Y-93434400D01*
X101320235Y-93295019D01*
X101438769Y-93176485D01*
X101578150Y-93083353D01*
X101733022Y-93019203D01*
X101897434Y-92986500D01*
X102065066Y-92986500D01*
X102229478Y-93019203D01*
X102229478Y-93019203D01*
G37*
G36*
X114163500Y-94626000D02*
G01*
X112461500Y-94626000D01*
X112461500Y-92924000D01*
X114163500Y-92924000D01*
X114163500Y-94626000D01*
X114163500Y-94626000D01*
G37*
G36*
X121360728Y-92956703D02*
G01*
X121515600Y-93020853D01*
X121654981Y-93113985D01*
X121773515Y-93232519D01*
X121866647Y-93371900D01*
X121930797Y-93526772D01*
X121963500Y-93691184D01*
X121963500Y-93858816D01*
X121930797Y-94023228D01*
X121866647Y-94178100D01*
X121773515Y-94317481D01*
X121654981Y-94436015D01*
X121515600Y-94529147D01*
X121360728Y-94593297D01*
X121196316Y-94626000D01*
X121028684Y-94626000D01*
X120864272Y-94593297D01*
X120709400Y-94529147D01*
X120570019Y-94436015D01*
X120451485Y-94317481D01*
X120358353Y-94178100D01*
X120294203Y-94023228D01*
X120261500Y-93858816D01*
X120261500Y-93691184D01*
X120294203Y-93526772D01*
X120358353Y-93371900D01*
X120451485Y-93232519D01*
X120570019Y-93113985D01*
X120709400Y-93020853D01*
X120864272Y-92956703D01*
X121028684Y-92924000D01*
X121196316Y-92924000D01*
X121360728Y-92956703D01*
X121360728Y-92956703D01*
G37*
G36*
X114155825Y-83882536D02*
G01*
X114406336Y-83936583D01*
X114539607Y-83994324D01*
X114641489Y-84038465D01*
X114723781Y-84095394D01*
X114852246Y-84184264D01*
X114852248Y-84184266D01*
X115030512Y-84368380D01*
X115169430Y-84583733D01*
X115263669Y-84822054D01*
X115294444Y-84990983D01*
X115309601Y-85074178D01*
X115305463Y-85330419D01*
X115251416Y-85580930D01*
X115175063Y-85757161D01*
X114302096Y-87328799D01*
X114192829Y-87486747D01*
X114192827Y-87486749D01*
X114008713Y-87665013D01*
X113824203Y-87784035D01*
X113793358Y-87803932D01*
X113770796Y-87812853D01*
X113555039Y-87898170D01*
X113376090Y-87930770D01*
X113302915Y-87944102D01*
X113046675Y-87939964D01*
X112796164Y-87885917D01*
X112662893Y-87828176D01*
X112561011Y-87784035D01*
X112449562Y-87706936D01*
X112350254Y-87638236D01*
X112319995Y-87606984D01*
X112171988Y-87454120D01*
X112033070Y-87238767D01*
X111938831Y-87000446D01*
X111906231Y-86821497D01*
X111892899Y-86748322D01*
X111897037Y-86492082D01*
X111951084Y-86241571D01*
X112027437Y-86065340D01*
X112900404Y-84493701D01*
X113009671Y-84335753D01*
X113009673Y-84335751D01*
X113193787Y-84157487D01*
X113409139Y-84018568D01*
X113647460Y-83924330D01*
X113826409Y-83891730D01*
X113899584Y-83878398D01*
X114155825Y-83882536D01*
X114155825Y-83882536D01*
G37*
G36*
X95024575Y-83851286D02*
G01*
X95275086Y-83905333D01*
X95377438Y-83949678D01*
X95510239Y-84007215D01*
X95621688Y-84084314D01*
X95720996Y-84153014D01*
X95720998Y-84153016D01*
X95899262Y-84337130D01*
X96038180Y-84552483D01*
X96132419Y-84790804D01*
X96165019Y-84969753D01*
X96178351Y-85042928D01*
X96174213Y-85299169D01*
X96120166Y-85549680D01*
X96043813Y-85725911D01*
X95170846Y-87297549D01*
X95061579Y-87455497D01*
X95061577Y-87455499D01*
X94877463Y-87633763D01*
X94692953Y-87752785D01*
X94662108Y-87772682D01*
X94639546Y-87781603D01*
X94423789Y-87866920D01*
X94252263Y-87898168D01*
X94171665Y-87912852D01*
X93915425Y-87908714D01*
X93664914Y-87854667D01*
X93531643Y-87796926D01*
X93429761Y-87752785D01*
X93302883Y-87665012D01*
X93219004Y-87606986D01*
X93219002Y-87606984D01*
X93040738Y-87422870D01*
X92901820Y-87207517D01*
X92807581Y-86969196D01*
X92767343Y-86748323D01*
X92761649Y-86717072D01*
X92765787Y-86460832D01*
X92819834Y-86210321D01*
X92896187Y-86034090D01*
X93769154Y-84462451D01*
X93878421Y-84304503D01*
X94002606Y-84184264D01*
X94062537Y-84126237D01*
X94277889Y-83987318D01*
X94516210Y-83893080D01*
X94695159Y-83860480D01*
X94768334Y-83847148D01*
X95024575Y-83851286D01*
X95024575Y-83851286D01*
G37*
G36*
X119887629Y-82840063D02*
G01*
X120127241Y-82930963D01*
X120294553Y-83035613D01*
X120344515Y-83066863D01*
X120531102Y-83242538D01*
X120642459Y-83398800D01*
X120679830Y-83451240D01*
X120784985Y-83684947D01*
X120784986Y-83684951D01*
X120842526Y-83934678D01*
X120848308Y-84126644D01*
X120836183Y-84304501D01*
X120800166Y-84832821D01*
X120768385Y-85022233D01*
X120677485Y-85261845D01*
X120634067Y-85331260D01*
X120541585Y-85479119D01*
X120365910Y-85665706D01*
X120209648Y-85777063D01*
X120157208Y-85814434D01*
X119923501Y-85919589D01*
X119923497Y-85919590D01*
X119673771Y-85977130D01*
X119417616Y-85984844D01*
X119417612Y-85984844D01*
X119164871Y-85942437D01*
X118925259Y-85851537D01*
X118707985Y-85715637D01*
X118654953Y-85665706D01*
X118521398Y-85539962D01*
X118410041Y-85383700D01*
X118372670Y-85331260D01*
X118267515Y-85097553D01*
X118254929Y-85042928D01*
X118209974Y-84847822D01*
X118204192Y-84655858D01*
X118252334Y-83949678D01*
X118264294Y-83878398D01*
X118284115Y-83760267D01*
X118375015Y-83520655D01*
X118510915Y-83303381D01*
X118686590Y-83116794D01*
X118842852Y-83005437D01*
X118895292Y-82968066D01*
X119128999Y-82862911D01*
X119129003Y-82862910D01*
X119378729Y-82805370D01*
X119634884Y-82797656D01*
X119634888Y-82797656D01*
X119887629Y-82840063D01*
X119887629Y-82840063D01*
G37*
G36*
X100756379Y-82808813D02*
G01*
X100995991Y-82899713D01*
X101213265Y-83035613D01*
X101399852Y-83211288D01*
X101465480Y-83303381D01*
X101548580Y-83419990D01*
X101653735Y-83653697D01*
X101653736Y-83653701D01*
X101711276Y-83903428D01*
X101717058Y-84095394D01*
X101710999Y-84184264D01*
X101668916Y-84801571D01*
X101637135Y-84990983D01*
X101546235Y-85230595D01*
X101502817Y-85300010D01*
X101410335Y-85447869D01*
X101234660Y-85634456D01*
X101078398Y-85745813D01*
X101025958Y-85783184D01*
X100792251Y-85888339D01*
X100792247Y-85888340D01*
X100542521Y-85945880D01*
X100286366Y-85953594D01*
X100286362Y-85953594D01*
X100033621Y-85911187D01*
X99794009Y-85820287D01*
X99576735Y-85684387D01*
X99523703Y-85634456D01*
X99390148Y-85508712D01*
X99278791Y-85352450D01*
X99241420Y-85300010D01*
X99136265Y-85066303D01*
X99118910Y-84990983D01*
X99078724Y-84816572D01*
X99072942Y-84624608D01*
X99121084Y-83918428D01*
X99147622Y-83760267D01*
X99152865Y-83729017D01*
X99243765Y-83489405D01*
X99379665Y-83272131D01*
X99555340Y-83085544D01*
X99720191Y-82968066D01*
X99764042Y-82936816D01*
X99997749Y-82831661D01*
X99997753Y-82831660D01*
X100247479Y-82774120D01*
X100503634Y-82766406D01*
X100503638Y-82766406D01*
X100756379Y-82808813D01*
X100756379Y-82808813D01*
G37*
M02*
