M48
; DRILL file {KiCad 5.1.4} date Fri 23 Aug 2019 03:49:47 PM CDT
; FORMAT={-:-/ absolute / inch / decimal}
; #@! TF.CreationDate,2019-08-23T15:49:47-05:00
; #@! TF.GenerationSoftware,Kicad,Pcbnew,5.1.4
; #@! TF.FileFunction,Plated,1,2,PTH
FMAT,2
INCH
T1C0.0157
T2C0.0197
T3C0.0276
T4C0.0591
%
G90
G05
T1
X4.3526Y-3.7101
X4.4134Y-4.0827
X5.0118Y-3.4409
X5.0197Y-3.2087
X5.1102Y-3.3898
X5.2008Y-3.252
X5.2244Y-3.4528
X5.3582Y-3.3607
X5.3583Y-3.4213
X5.3819Y-3.9055
X5.3819Y-4.1102
X5.3839Y-3.3914
X5.4213Y-3.9724
X5.4488Y-3.7835
X5.4764Y-3.3228
X5.5472Y-3.2008
X5.6024Y-3.1969
X5.6535Y-3.3386
X5.8071Y-3.3268
X5.9016Y-3.3976
X6.0276Y-4.1614
X6.139Y-4.1946
X6.1496Y-3.9606
X6.1587Y-4.1605
X6.2089Y-4.1145
X6.2165Y-4.3622
X6.2464Y-4.1985
X6.2638Y-3.9646
X6.3071Y-4.3543
X6.322Y-4.1821
X6.3228Y-4.0984
X6.374Y-4.4882
T3
X4.4648Y-4.4464
X4.7719Y-4.4464
X4.4611Y-3.6919
X4.7682Y-3.6919
X3.7079Y-3.6944
X4.015Y-3.6944
X3.7042Y-4.4476
X4.0113Y-4.4476
T2
G00X6.0203Y-4.5291
M15
G01X6.0203Y-4.5528
M16
G05
G00X6.0345Y-4.2949
M15
G01X6.0345Y-4.3185
M16
G05
G00X6.3597Y-4.2949
M15
G01X6.3597Y-4.3185
M16
G05
G00X6.3739Y-4.5291
M15
G01X6.3739Y-4.5528
M16
G05
T4
G00X4.4885Y-4.1043
M15
G01X4.4565Y-4.1618
M16
G05
G00X4.7065Y-4.0618
M15
G01X4.705Y-4.0846
M16
G05
G00X4.4885Y-3.3536
M15
G01X4.4565Y-3.4111
M16
G05
G00X4.7065Y-3.3111
M15
G01X4.705Y-3.3339
M16
G05
G00X3.7353Y-3.3524
M15
G01X3.7033Y-3.4098
M16
G05
G00X3.9533Y-3.3099
M15
G01X3.9518Y-3.3327
M16
G05
G00X3.7353Y-4.1056
M15
G01X3.7033Y-4.163
M16
G05
G00X3.9533Y-4.0631
M15
G01X3.9518Y-4.0858
M16
G05
T0
M30
